<?xml version="1.0" standalone="no"?>
<!DOCTYPE svg PUBLIC "-//W3C//DTD SVG 20010904//EN"
 "http://www.w3.org/TR/2001/REC-SVG-20010904/DTD/svg10.dtd">
<svg version="1.0" xmlns="http://www.w3.org/2000/svg"
 width="500.000000pt" height="500.000000pt" viewBox="0 0 500.000000 500.000000"
 preserveAspectRatio="xMidYMid meet">

<g transform="translate(0.000000,500.000000) scale(0.100000,-0.100000)"
fill="#000000" stroke="none">
<path d="M2348 3795 c-456 -72 -794 -427 -848 -894 -17 -145 1 -285 62 -479 2
-4 5 164 8 373 l5 380 89 0 89 0 143 -287 c79 -159 146 -288 148 -288 2 0 69
131 147 290 l143 290 88 0 88 0 0 -445 0 -445 -70 0 -70 0 -1 323 -1 322 -136
-277 -137 -278 -53 0 c-45 0 -54 3 -61 23 -5 12 -66 137 -135 277 l-126 255 0
-322 0 -323 -40 0 c-22 0 -40 -4 -40 -9 0 -14 89 -131 144 -189 102 -108 276
-212 429 -256 408 -118 836 22 1088 356 236 314 271 730 90 1074 -27 51 -61
109 -77 129 -28 37 -29 37 -34 14 -6 -24 -6 -24 -163 -27 l-157 -3 0 -419 0
-420 -87 0 -88 0 0 417 0 418 -157 3 -158 3 0 79 0 80 357 2 358 3 -69 51
c-143 107 -326 182 -499 204 -103 13 -160 12 -269 -5z"/>
<path d="M1590 1475 l0 -115 25 0 c24 0 25 2 26 73 l0 72 27 -55 c44 -90 54
-91 92 -7 l29 62 1 -72 c0 -71 1 -73 25 -73 l25 0 0 115 0 115 -30 0 c-27 0
-33 -6 -61 -67 l-31 -68 -34 68 c-31 60 -37 67 -64 67 l-30 0 0 -115z"/>
<path d="M1917 1481 c-26 -60 -47 -112 -47 -115 0 -16 50 -4 60 14 8 16 21 20
60 20 39 0 52 -4 60 -20 10 -20 60 -29 60 -12 0 5 -20 56 -43 113 -41 96 -46
104 -73 107 -28 3 -31 -1 -77 -107z m92 8 c16 -46 14 -49 -19 -49 -16 0 -30 4
-30 9 0 18 22 71 30 71 4 0 13 -14 19 -31z"/>
<path d="M2140 1475 l0 -115 30 0 30 0 0 115 0 115 -30 0 -30 0 0 -115z"/>
<path d="M2250 1475 l0 -115 24 0 c21 0 25 6 28 33 2 24 8 33 25 35 18 3 27
-5 40 -32 13 -29 22 -36 45 -36 33 0 34 3 8 45 -20 32 -20 32 0 50 21 19 26
65 10 95 -13 24 -62 40 -126 40 l-54 0 0 -115z m130 60 c14 -8 12 -39 -2 -53
-7 -7 -27 -12 -45 -12 -31 0 -33 2 -33 33 0 19 3 36 6 39 7 7 60 2 74 -7z"/>
<path d="M2481 1492 c-2 -115 3 -132 35 -132 24 0 24 0 24 115 l0 115 -29 0
-29 0 -1 -98z"/>
<path d="M2642 1568 c2 -18 11 -24 36 -26 l32 -3 0 -90 0 -89 30 0 30 0 0 89
0 90 33 3 c24 2 33 8 35 26 3 22 1 22 -98 22 -99 0 -101 0 -98 -22z"/>
<path d="M2869 1588 c-1 -2 -3 -43 -5 -93 -6 -115 -1 -135 31 -135 l25 0 0
115 0 115 -25 0 c-14 0 -25 -1 -26 -2z"/>
<path d="M2970 1475 l0 -115 25 0 c21 0 25 5 25 28 0 16 8 37 19 46 18 16 20
15 47 -29 25 -38 34 -45 62 -45 18 0 31 4 28 8 -3 5 -23 35 -45 67 l-39 59 40
46 40 45 -28 3 c-24 3 -37 -5 -76 -50 l-47 -53 -1 53 c0 49 -2 52 -25 52 l-25
0 0 -115z"/>
<path d="M3210 1475 l0 -115 30 0 c27 0 30 3 30 34 0 28 24 68 33 55 58 -86
60 -89 88 -89 16 0 29 2 29 6 0 3 -18 32 -41 65 -45 66 -45 61 15 127 l30 32
-31 0 c-23 0 -41 -11 -77 -50 l-46 -49 0 49 c0 49 -1 50 -30 50 l-30 0 0 -115z"/>
</g>
</svg>
